<?xml version="1.0" encoding="UTF-8"?>
<svg id="a" data-name="Capa 1" xmlns="http://www.w3.org/2000/svg" viewBox="0 0 25.42 25.42">
  <path d="M12.72,14.58c-.44,0-.88-.11-1.26-.35l-1.55-.74v1.85c0,.61.4,1.16.98,1.34,1.07.32,2.58.32,3.65,0,.58-.17.98-.72.98-1.34v-1.85l-1.59.76c-.36.22-.78.32-1.2.32h-.01Z" fill="#dd7882"/>
  <path d="M16.97,10.38l-3.44-1.64c-.51-.3-1.12-.3-1.58-.02l-3.5,1.67c-.25.16-.4.41-.4.69s.15.54.42.7l3.44,1.64c.51.3,1.11.3,1.58.02l3.52-1.68c.22-.14.38-.39.38-.67s-.15-.54-.42-.7h0Z" fill="#dd7882"/>
  <path d="M12.71,0C5.69,0,0,5.69,0,12.71s5.69,12.71,12.71,12.71,12.71-5.69,12.71-12.71S19.73,0,12.71,0ZM18.32,15.17c0,.26-.21.47-.47.47s-.47-.21-.47-.47v-2.57l-.94.45v2.29c0,1.02-.68,1.94-1.64,2.23-.62.19-1.33.28-2.09.28s-1.47-.09-2.09-.28c-.97-.29-1.64-1.21-1.64-2.23v-2.29l-.96-.46c-.58-.35-.91-.91-.91-1.52s.32-1.17.87-1.5c.01,0,.03-.02.04-.02l3.48-1.66c.72-.44,1.71-.43,2.47.02l3.44,1.64c.44.26.73.65.85,1.08.03.07.06.14.06.21v4.32h0Z" fill="#dd7882"/>
</svg>