<?xml version="1.0" encoding="UTF-8"?>
<svg id="a" data-name="Capa 1" xmlns="http://www.w3.org/2000/svg" viewBox="0 0 25.42 25.42">
  <path d="M16.8,8.33h-8.16c-.41,0-.75.34-.75.75v7.25c0,.21.08.39.22.53v-.03c0-.51.25-.91.76-1.23s1.19-.47,2.07-.47,1.56.16,2.07.47.76.72.76,1.23v.25h3.05c.4,0,.73-.33.73-.73v-7.29c0-.4-.33-.73-.73-.73h-.02ZM11.87,13.86c-.26.26-.57.39-.94.39s-.68-.13-.94-.39-.39-.57-.39-.94.13-.68.39-.94.57-.39.94-.39.68.13.94.39.39.57.39.94-.13.68-.39.94ZM16.01,14.91h-1.47c-.23,0-.42-.19-.42-.42s.19-.42.42-.42h1.47c.23,0,.42.19.42.42s-.19.42-.42.42ZM16.01,12.25h-1.47c-.23,0-.42-.19-.42-.42s.19-.42.42-.42h1.47c.23,0,.42.19.42.42s-.19.42-.42.42ZM16.01,10.97h-1.47c-.23,0-.42-.19-.42-.42s.19-.42.42-.42h1.47c.23,0,.42.19.42.42s-.19.42-.42.42Z" fill="#dd7882"/>
  <path d="M12.71,0C5.69,0,0,5.69,0,12.71s5.69,12.71,12.71,12.71,12.71-5.69,12.71-12.71S19.73,0,12.71,0ZM18.32,16.78c0,.29-.11.54-.32.75s-.46.32-.75.32h-9.07c-.29,0-.54-.11-.75-.32s-.32-.46-.32-.75v-8.15c0-.29.11-.54.32-.75s.46-.32.75-.32h9.07c.29,0,.54.11.75.32s.32.46.32.75c0,0,0,8.15,0,8.15Z" fill="#dd7882"/>
</svg>