<?xml version="1.0" encoding="UTF-8"?>
<svg id="a" data-name="Capa 1" xmlns="http://www.w3.org/2000/svg" viewBox="0 0 25.42 25.42">
  <path d="M13.32,17.92l-.53-1.01-.53,1.01c-.04.09-.13.15-.22.16l-1.12.19.79.81c.07.07.1.17.09.26l-.17,1.12,1.02-.5s.09-.03.14-.03.09.01.14.03l1.02.5-.17-1.12c-.01-.1.02-.19.08-.26l.79-.81-1.12-.19c-.1-.02-.18-.08-.22-.16h.01Z" fill="#dd7882"/>
  <path d="M8.11,15.73l-.3-.58-.3.58c-.04.09-.13.15-.22.16l-.64.11.46.47c.07.07.1.17.09.26l-.1.65.59-.29s.09-.03.14-.03.09.01.14.03l.59.29-.1-.65c-.01-.1.02-.19.08-.26l.46-.47-.65-.11c-.1-.02-.18-.08-.22-.16h-.02Z" fill="#dd7882"/>
  <path d="M12.8,11.71c.83,0,1.51-.68,1.51-1.51s-.68-1.5-1.51-1.5-1.51.68-1.51,1.5.68,1.51,1.51,1.51Z" fill="#dd7882"/>
  <path d="M15.24,14c-.05-.85-.54-1.6-1.3-2.01-.33.21-.72.34-1.15.34s-.82-.13-1.15-.34c-.75.4-1.24,1.16-1.3,2.01,1.46,1.02,3.42,1.02,4.89,0h.01Z" fill="#dd7882"/>
  <path d="M18.1,15.73l-.3-.58-.3.58c-.04.09-.13.15-.22.16l-.65.11.46.47c.07.07.1.17.08.26l-.1.65.59-.29c.09-.04.19-.04.27,0l.59.29-.1-.65c-.01-.1.02-.19.09-.26l.46-.47-.64-.11c-.1-.02-.18-.08-.22-.16h0Z" fill="#dd7882"/>
  <path d="M12.71,0C5.69,0,0,5.69,0,12.71s5.69,12.71,12.71,12.71,12.71-5.69,12.71-12.71S19.73,0,12.71,0ZM15.91,6.97c.15-.08.34-.01.42.14h0c.08.16.01.34-.14.42-.04.02-.09.03-.14.03-.11,0-.22-.06-.28-.17-.08-.15-.02-.34.14-.42ZM9.33,7.03c1.52-1.52,3.83-1.88,5.73-.88.15.08.21.27.13.42s-.27.21-.42.13c-1.67-.87-3.68-.56-5.01.77-.81.81-1.25,1.88-1.25,3.03s.45,2.22,1.25,3.03c0,0,.01,0,.01.01.17-.82.66-1.54,1.37-1.99-.3-.37-.49-.83-.49-1.34,0-1.17.95-2.12,2.13-2.12s2.13.95,2.13,2.12c0,.51-.19.97-.49,1.34.71.45,1.2,1.17,1.37,1.99,0,0,.01,0,.01-.01,1.33-1.33,1.64-3.34.77-5-.08-.15-.02-.34.13-.42.15-.08.34-.02.42.13.99,1.91.64,4.21-.88,5.73-.14.14-.3.25-.46.37-.02.03-.05.05-.08.07-.87.65-1.89.99-2.93.99s-2.06-.34-2.93-.99c-.03-.02-.06-.04-.08-.07-.15-.12-.31-.23-.46-.37-.93-.93-1.44-2.16-1.44-3.47s.51-2.54,1.44-3.47h.03ZM9.83,16.01l-.76.78.16,1.08c.02.11-.03.23-.12.3-.05.04-.12.06-.18.06-.05,0-.09-.01-.14-.03l-.98-.48-.98.48c-.1.05-.23.04-.32-.03s-.14-.18-.12-.3l.16-1.08-.76-.78c-.08-.08-.11-.2-.07-.31s.13-.19.24-.21l1.08-.18.51-.97c.05-.1.16-.17.27-.17s.22.06.27.17l.51.97,1.08.18c.11.02.21.1.24.21.04.11,0,.23-.07.31h-.02ZM15.52,18.28l-1.1,1.12.23,1.56c.02.11-.03.23-.12.3-.09.07-.22.08-.32.03l-1.41-.7-1.41.7s-.09.03-.14.03c-.06,0-.13-.02-.18-.06-.09-.07-.14-.18-.12-.3l.23-1.56-1.1-1.12c-.08-.08-.11-.2-.07-.31s.13-.19.24-.21l1.55-.26.73-1.39c.11-.2.44-.2.55,0l.73,1.39,1.55.26c.11.02.21.1.24.21s0,.23-.07.31h-.01ZM19.82,16.01l-.76.78.16,1.08c.02.11-.03.23-.12.3s-.22.08-.32.03l-.98-.48-.98.48s-.09.03-.14.03c-.06,0-.13-.02-.18-.06-.09-.07-.14-.18-.12-.3l.16-1.08-.76-.78c-.08-.08-.11-.2-.07-.31s.13-.19.24-.21l1.08-.18.51-.97c.11-.2.44-.2.55,0l.51.97,1.08.18c.11.02.21.1.24.21.04.11,0,.23-.07.31h-.03Z" fill="#dd7882"/>
</svg>